<?xml version="1.0" encoding="utf-8"?>
<!-- Generator: Adobe Illustrator 16.0.0, SVG Export Plug-In . SVG Version: 6.00 Build 0)  -->
<!DOCTYPE svg PUBLIC "-//W3C//DTD SVG 1.1//EN" "http://www.w3.org/Graphics/SVG/1.1/DTD/svg11.dtd">
<svg version="1.1" id="Layer_1" xmlns="http://www.w3.org/2000/svg" xmlns:xlink="http://www.w3.org/1999/xlink" x="0px" y="0px"
	 width="115px" height="45px" viewBox="0 0 115 45" enable-background="new 0 0 115 45" xml:space="preserve">
<path fill="#17A1C2" d="M7.095,7.337c1.508,0,2.745,1.237,2.745,2.744c0,1.506-1.237,2.745-2.745,2.745
	c-1.506,0-2.745-1.238-2.745-2.745C4.35,8.574,5.588,7.337,7.095,7.337"/>
<path fill="#17A1C2" d="M57.947,7.337c1.505,0,2.744,1.237,2.744,2.744c0,1.506-1.238,2.745-2.744,2.745
	c-1.506,0-2.744-1.238-2.744-2.745C55.203,8.574,56.441,7.337,57.947,7.337"/>
<path fill="#17A1C2" d="M90.234,7.337c1.505,0,2.744,1.237,2.744,2.744c0,1.506-1.239,2.745-2.744,2.745
	c-1.507,0-2.745-1.238-2.745-2.745C87.489,8.574,88.728,7.337,90.234,7.337"/>
<path fill="#F68C3C" d="M31.948,27.395c-0.964-0.004-1.738-0.776-1.738-1.738c0-0.956,0.788-1.74,1.746-1.738
	c0.958,0.001,1.741,0.79,1.733,1.749C33.682,26.631,32.909,27.399,31.948,27.395"/>
<g>
	<path fill="#F89642" d="M35.321,24.745c-0.357-1.261-1.182-2.105-2.443-2.439c-1.367-0.364-2.569-0.015-3.524,1.045
		c-0.882,0.979-1.105,2.137-0.713,3.374c0.389,1.232,1.255,2.004,2.516,2.314c0.173,0.039,0.229,0.111,0.229,0.294
		c-0.012,1.08,0,2.161-0.01,3.244c-0.002,0.331-0.021,0.67-0.08,1.001c-0.153,0.837-0.442,1.57-0.87,2.188
		c-2.87,4.348-9.285,4.55-9.285,4.55l0.179,1.188c0,0,7.312-0.253,10.118-5.197c0.766-1.12,1.097-2.377,1.098-3.726
		c0.002-1.068,0.009-2.136-0.003-3.203c-0.002-0.223,0.063-0.305,0.279-0.357C34.717,28.542,35.852,26.612,35.321,24.745z
		 M31.927,27.994c-1.287-0.035-2.339-1.116-2.302-2.363c0.041-1.325,1.071-2.308,2.345-2.296c1.379,0.013,2.319,1.108,2.306,2.346
		C34.263,26.977,33.177,28.025,31.927,27.994z"/>
	<rect x="5.164" y="18.529" fill="#17A1C2" width="3.875" height="22.33"/>
	<rect x="46.92" y="7.336" fill="#17A1C2" width="3.875" height="33.522"/>
	<rect x="56.015" y="18.529" fill="#17A1C2" width="3.872" height="22.33"/>
	<path fill="#17A1C2" d="M65.103,18.529h3.878v2.583c0.699-0.914,2.69-3.121,6.403-3.121c2.636,0,5.058,1.077,6.404,3.067
		c1.128,1.669,1.29,3.494,1.29,5.973v13.828h-3.874V27.137c0-1.345-0.107-2.905-1.022-4.089c-0.752-0.968-1.938-1.613-3.66-1.613
		c-1.342,0-2.798,0.375-3.927,1.722c-1.506,1.774-1.614,4.413-1.614,6.025v11.677h-3.878V18.529z"/>
	<rect x="88.3" y="18.529" fill="#17A1C2" width="3.872" height="22.33"/>
	<path fill="#17A1C2" d="M114.878,24.77c-2.045-2.581-5.003-3.335-6.995-3.335c-4.143,0-7.908,2.905-7.908,8.338
		c0,5.437,3.875,8.287,7.855,8.287c2.313,0,5.166-1.021,7.21-3.496v4.626c-2.422,1.778-5.003,2.314-7.103,2.314
		c-6.94,0-11.946-4.95-11.946-11.675c0-6.835,5.057-11.839,11.946-11.839c3.55,0,5.865,1.398,6.94,2.153V24.77z"/>
	<path fill="#17A1C2" d="M42.667,12.877c-1.129-1.128-2.851-2.475-4.681-3.335c-1.882-0.86-4.088-1.399-6.186-1.399
		c-8.288,0-14.421,6.672-14.421,14.959c0,9.737,7.911,14.635,14.474,14.635c2.423,0,4.79-0.699,6.672-1.669
		c2.045-1.019,3.499-2.366,4.143-3.011v4.95c-3.982,2.851-8.124,3.496-10.815,3.496c-10.654,0-18.564-8.071-18.564-18.456
		c0-10.708,8.018-18.671,18.779-18.671c2.154,0,6.296,0.268,10.6,3.552V12.877z"/>
	<path fill="#F89642" d="M21.141,40.316c-10.27,0-13.102-5.856-13.102-5.856c-0.158-0.472-0.244-0.98-0.254-1.517
		c-0.036-1.41-0.02-2.818-0.031-4.231c-0.001-0.129,0.047-0.175,0.167-0.193c0.153-0.02,0.306-0.047,0.455-0.092
		c1.316-0.373,2.346-1.182,3.224-2.2c0.123-0.144,0.142-0.376,0.21-0.569c0.029-0.087,0.043-0.181,0.089-0.255
		c0.32-0.521,0.677-1.021,0.961-1.557c0.56-1.058,0.974-2.176,1.218-3.354c0.231-1.115,0.299-2.235,0.087-3.359
		c-0.207-1.096-0.835-1.845-1.895-2.198c-0.551-0.187-1.122-0.318-1.682-0.481c-0.086-0.024-0.2-0.055-0.24-0.121
		c-0.145-0.23-0.363-0.348-0.596-0.454H9.35c-0.076,0.042-0.15,0.081-0.225,0.123c-0.45,0.253-0.623,0.807-0.383,1.228
		c0.279,0.489,0.782,0.63,1.273,0.365c0.061-0.035,0.152-0.044,0.224-0.027c0.436,0.103,0.871,0.213,1.304,0.33
		c0.854,0.23,1.455,0.719,1.527,1.646c0.051,0.646,0.078,1.309-0.004,1.948c-0.242,1.892-0.977,3.599-2.07,5.156
		c-0.051,0.075-0.153,0.114-0.233,0.166c-0.177,0.113-0.374,0.207-0.531,0.342c-0.376,0.32-0.712,0.696-1.107,0.987
		c-1.023,0.755-2.128,0.95-3.307,0.361c-0.603-0.299-1.115-0.717-1.563-1.212c-0.202-0.221-0.408-0.426-0.72-0.485
		c-0.05-0.01-0.108-0.054-0.136-0.101c-0.287-0.452-0.601-0.893-0.849-1.365c-0.603-1.145-1.04-2.353-1.239-3.639
		c-0.114-0.735-0.131-1.471-0.023-2.206c0.105-0.704,0.444-1.236,1.156-1.456c0.569-0.175,1.145-0.329,1.72-0.485
		c0.057-0.015,0.138,0.022,0.199,0.054c0.323,0.173,0.719,0.154,0.986-0.063c0.309-0.251,0.427-0.572,0.338-0.967
		c-0.086-0.375-0.369-0.555-0.688-0.7H4.637c-0.191,0.123-0.402,0.222-0.558,0.375c-0.108,0.105-0.211,0.168-0.349,0.206
		c-0.595,0.167-1.198,0.307-1.775,0.517c-0.891,0.322-1.469,0.958-1.708,1.886c-0.338,1.297-0.227,2.585,0.072,3.867
		c0.396,1.69,1.103,3.242,2.122,4.655c0.062,0.085,0.068,0.205,0.107,0.311c0.072,0.192,0.104,0.421,0.232,0.562
		c0.318,0.359,0.667,0.697,1.035,1.009c0.762,0.639,1.618,1.1,2.615,1.254c0.147,0.023,0.176,0.089,0.176,0.227
		c-0.004,1.299,0,2.592-0.002,3.891c-0.002,0.71,0.078,1.405,0.304,2.079c0,0,2.977,6.791,14.412,6.789"/>
</g>
</svg>
